<svg width="26" height="26" viewBox="0 0 26 26" fill="none" xmlns="http://www.w3.org/2000/svg">
<path d="M25.7996 24.832C25.8632 24.8956 25.9136 24.971 25.9479 25.054C25.9823 25.137 26 25.226 26 25.3159C26 25.4057 25.9823 25.4947 25.9479 25.5777C25.9135 25.6607 25.8631 25.7361 25.7996 25.7996C25.736 25.8632 25.6606 25.9136 25.5776 25.9479C25.4946 25.9823 25.4056 26 25.3157 26C25.2259 26 25.1369 25.9823 25.0539 25.9479C24.9709 25.9135 24.8955 25.8631 24.832 25.7996L13 13.9677L1.16804 25.7996C1.03974 25.9279 0.865716 26 0.684256 26C0.502796 26 0.328761 25.9279 0.200438 25.7996C0.0721154 25.6713 1.57211e-05 25.4973 2.57064e-09 25.3159C-1.5716e-05 25.1344 0.0720541 24.9604 0.200355 24.832L12.0324 13L0.200355 1.16795C0.0720541 1.03963 -1.5716e-05 0.865597 2.57064e-09 0.684137C7.7856e-06 0.594287 0.0177127 0.505318 0.052104 0.422311C0.0864952 0.339303 0.136899 0.263883 0.200438 0.200355C0.263977 0.136827 0.339407 0.0864358 0.42242 0.0520589C0.505434 0.017682 0.594406 -7.78046e-06 0.684256 2.56711e-09C0.865716 1.57211e-05 1.03974 0.0721154 1.16804 0.200438L13 12.0323L24.832 0.200438C24.8955 0.136899 24.9709 0.0864952 25.0539 0.052104C25.1369 0.0177127 25.2259 7.78559e-06 25.3157 2.56711e-09C25.4056 -7.78046e-06 25.4946 0.017682 25.5776 0.0520589C25.6606 0.0864358 25.736 0.136827 25.7996 0.200355C25.8631 0.263883 25.9135 0.339303 25.9479 0.422311C25.9823 0.505318 26 0.594287 26 0.684137C26 0.773987 25.9823 0.862959 25.9479 0.945972C25.9136 1.02899 25.8632 1.10442 25.7996 1.16795L13.9676 13L25.7996 24.832Z" fill="#755139"/>
</svg>
