<svg width="28" height="29" viewBox="0 0 28 29" fill="none" xmlns="http://www.w3.org/2000/svg">
<g clip-path="url(#clip0_51_14)">
<rect width="28" height="29" fill="none"/>
<path d="M25.7384 4.11916C24.2722 2.60062 22.3311 1.77064 20.2595 1.77064C18.1878 1.77064 16.2408 2.60676 14.7746 4.12531L14.0089 4.9184L13.2313 4.11301C11.7651 2.59447 9.81218 1.7522 7.74053 1.7522C5.67481 1.7522 3.72782 2.58832 2.26757 4.10072C0.801387 5.61927 -0.00590346 7.6358 3.25037e-05 9.78144C3.25037e-05 11.9271 0.813259 13.9375 2.27944 15.456L13.4272 27.0019C13.5815 27.1617 13.7893 27.2478 13.9911 27.2478C14.1929 27.2478 14.4007 27.1679 14.555 27.008L25.7265 15.4806C27.1927 13.962 28 11.9455 28 9.79988C28.0059 7.65424 27.2046 5.63771 25.7384 4.11916ZM24.5987 14.3063L13.9911 25.2497L3.40728 14.2879C2.24383 13.0829 1.60274 11.4844 1.60274 9.78144C1.60274 8.07845 2.23789 6.47998 3.40134 5.28113C4.55885 4.08227 6.1022 3.4183 7.74053 3.4183C9.38479 3.4183 10.9341 4.08227 12.0975 5.28728L13.4391 6.67671C13.7537 7.00256 14.2582 7.00256 14.5728 6.67671L15.9025 5.29957C17.0659 4.09457 18.6152 3.43059 20.2535 3.43059C21.8919 3.43059 23.4352 4.09457 24.5987 5.29342C25.7621 6.49842 26.3973 8.09689 26.3973 9.79988C26.4032 11.5029 25.7621 13.1013 24.5987 14.3063Z" fill="#E42626"/>
<!-- <path d="M25.6831 3.54664C24.9467 2.73729 24.0697 2.09533 23.103 1.65812C22.1362 1.22092 21.0991 0.997201 20.0521 1.00003C19.005 0.997201 17.968 1.22092 17.0013 1.65812C16.0346 2.09533 15.1575 2.73729 14.4212 3.54664L13.972 4.05247L13.5228 3.56406C12.0336 1.94506 10.0138 1.03552 7.90787 1.03552C5.80189 1.03552 3.78218 1.94506 2.29295 3.56406C0.823227 5.19433 0 7.38614 0 9.66897C0 11.9518 0.823227 14.1436 2.29295 15.7738L13.1538 27.6173C13.3794 27.8624 13.6851 28 14.0041 28C14.3228 28 14.6288 27.8624 14.8543 27.6173L25.7152 15.7738C27.1855 14.1382 28.0059 11.9401 28 9.6531C27.994 7.36605 27.1619 5.17308 25.6831 3.54664Z" fill="#E42626"/> -->
</g>
<defs>
<clipPath id="clip0_51_14">
<rect width="28" height="29" fill="none"/>
</clipPath>
</defs>
</svg>
