<svg width="30" height="27" viewBox="0 0 30 27" fill="none" xmlns="http://www.w3.org/2000/svg">
<g clip-path="url(#clip0_80_2)">
<path d="M14.0625 25.3126H1.87502V1.68767H14.0625C14.58 1.68767 15 1.30964 15 0.843939C15 0.378242 14.5799 0.000213623 14.0625 0.000213623H0.937473C0.420032 0.000213623 0 0.378172 0 0.843939V26.1563C0 26.6221 0.420032 27.0001 0.937473 27.0001H14.0624C14.5799 27.0001 14.9999 26.622 14.9999 26.1563C15 25.6906 14.5799 25.3126 14.0625 25.3126Z" fill="#755139"/>
<path d="M29.7281 12.9111L23.2594 7.00567C22.8928 6.67239 22.2994 6.67323 21.9338 7.00567C21.5672 7.33811 21.5672 7.87808 21.9338 8.21053L26.8088 12.6613H7.5029C6.98538 12.6613 6.56543 13.0427 6.56543 13.5135C6.56543 13.9843 6.98546 14.3657 7.5029 14.3657H26.8088L21.9338 18.8165C21.5672 19.1498 21.5672 19.6889 21.9338 20.0214C22.3003 20.3546 22.8937 20.3546 23.2594 20.0214L29.7272 14.116C30.0891 13.7877 30.0928 13.2384 29.7281 12.9111Z" fill="#755139"/>
</g>
<defs>
<clipPath id="clip0_80_2">
<rect width="30" height="27" fill="white"/>
</clipPath>
</defs>
</svg>
