<svg width="40" height="40" viewBox="0 0 40 40" fill="none" xmlns="http://www.w3.org/2000/svg">
<path d="M31.8306 17.7304C25.3838 13.9017 14.7499 13.5498 8.59553 15.4176C7.60698 15.7175 6.562 15.1597 6.2627 14.1713C5.96321 13.1824 6.52045 12.138 7.50936 11.8376C14.5743 9.69317 26.3182 10.1073 33.74 14.5129C34.6291 15.0407 34.9204 16.1887 34.3936 17.0761C33.8663 17.965 32.7174 18.2583 31.8306 17.7304ZM31.6194 23.4009C31.1671 24.1349 30.2074 24.3651 29.4745 23.9145C24.1 20.6108 15.9041 19.6536 9.5454 21.5838C8.72092 21.8327 7.84986 21.3681 7.59946 20.5449C7.48008 20.1491 7.5225 19.7222 7.71742 19.3577C7.91233 18.9932 8.24383 18.7208 8.63924 18.6004C15.903 16.396 24.9333 17.4635 31.1064 21.2572C31.8394 21.7086 32.0701 22.6687 31.6194 23.4009ZM29.1721 28.8468C29.0869 28.9868 28.975 29.1085 28.8427 29.2051C28.7104 29.3017 28.5604 29.3713 28.4012 29.4098C28.242 29.4483 28.0767 29.4551 27.9149 29.4297C27.7531 29.4042 27.5979 29.3472 27.4581 29.2617C22.7616 26.3913 16.8502 25.7431 9.88841 27.3333C9.72889 27.3698 9.56375 27.3745 9.40242 27.3471C9.24109 27.3197 9.08673 27.2609 8.94815 27.1738C8.80958 27.0868 8.68951 26.9733 8.5948 26.8399C8.50009 26.7065 8.4326 26.5557 8.39618 26.3961C8.3595 26.2366 8.35466 26.0713 8.38194 25.9099C8.40922 25.7484 8.46807 25.594 8.55514 25.4553C8.64221 25.3166 8.75578 25.1965 8.88934 25.1018C9.02291 25.0071 9.17384 24.9397 9.3335 24.9034C16.9519 23.162 23.4869 23.9114 28.7585 27.1327C28.8983 27.218 29.0198 27.3301 29.1163 27.4624C29.2127 27.5948 29.2821 27.7449 29.3205 27.904C29.3589 28.0632 29.3656 28.2284 29.3402 28.3902C29.3148 28.552 29.2575 28.7071 29.1721 28.8468ZM19.9996 0C8.95448 0 0 8.95413 0 19.9996C0 31.0462 8.95449 40 19.9998 40C31.0457 40 40 31.0462 40 19.9996C40 8.95431 31.0457 0 19.9996 0Z" fill="#755139"/>
</svg>
